<svg id="Layer_1" data-name="Layer 1" xmlns="http://www.w3.org/2000/svg" viewBox="0 0 781.58 250.33"><defs><style>.cls-1{fill:#075f74;}.cls-2{fill:#035f74;}.cls-3{fill:none;stroke:#fff;stroke-linecap:round;stroke-linejoin:round;stroke-width:9px;}</style></defs><title>big logo2</title><path class="cls-1" d="M.09,96.58C.09,48.18,36.53.23,91.09.23s91,48,91,96.35c0,59.65-56.48,124.17-80.11,148-7.6,7.67-13.9,7.93-21.74,0C57,221,.09,156.29.09,96.58Z"/><path class="cls-2" d="M241.48,154.35a5.11,5.11,0,0,1-3.8-1.42,5.05,5.05,0,0,1-1.4-3.72V85.64a5.21,5.21,0,0,1,1.4-3.85,5.08,5.08,0,0,1,3.8-1.42,4.91,4.91,0,0,1,3.67,1.42,5.21,5.21,0,0,1,1.4,3.85v63.57a5.05,5.05,0,0,1-1.4,3.72A5,5,0,0,1,241.48,154.35Zm57.4,0a5.06,5.06,0,0,1-5.21-5.14V114q0-8.39-3.14-13.79A20.12,20.12,0,0,0,282,92.13a26.93,26.93,0,0,0-12.21-2.7A26.62,26.62,0,0,0,258,92a21.13,21.13,0,0,0-8.35,7,17.54,17.54,0,0,0-3.07,10.14h-7.34A29.42,29.42,0,0,1,243.75,94,30.62,30.62,0,0,1,255.1,83.41a32.33,32.33,0,0,1,15.75-3.85,35.47,35.47,0,0,1,16.95,4,29.14,29.14,0,0,1,11.81,11.69Q303.95,103,304,114v35.17a5,5,0,0,1-1.47,3.65A4.88,4.88,0,0,1,298.88,154.35Z"/><path class="cls-2" d="M359.74,155a37.69,37.69,0,0,1-19.15-4.8,34.25,34.25,0,0,1-13.08-13.32,39.38,39.38,0,0,1-4.74-19.48,41.2,41.2,0,0,1,4.47-19.54,34.12,34.12,0,0,1,12.35-13.32,33.77,33.77,0,0,1,18.15-4.87,33,33,0,0,1,17.69,4.67,31.42,31.42,0,0,1,11.68,12.91,41.49,41.49,0,0,1,4.13,18.8,4.56,4.56,0,0,1-1.33,3.45,4.79,4.79,0,0,1-3.47,1.29H329.71v-8.66h57.8l-5.74,4.19A31.33,31.33,0,0,0,379,102.28,22.29,22.29,0,0,0,357.74,89a23.75,23.75,0,0,0-22.22,13.73,32.91,32.91,0,0,0-3.14,14.67A29.53,29.53,0,0,0,335.92,132a26.28,26.28,0,0,0,9.67,10,27.21,27.21,0,0,0,14.15,3.65,29.29,29.29,0,0,0,9.68-1.69,23.5,23.5,0,0,0,7.81-4.26,5.38,5.38,0,0,1,3.34-1.28,4.63,4.63,0,0,1,3.2,1,5,5,0,0,1,1.8,3.51,3.94,3.94,0,0,1-1.53,3.25,36.16,36.16,0,0,1-11.22,6.29A37.79,37.79,0,0,1,359.74,155Z"/><path class="cls-2" d="M438.1,155a34.79,34.79,0,0,1-18.42-4.93,35.68,35.68,0,0,1-12.88-13.46,38.83,38.83,0,0,1-4.74-19.21,38.25,38.25,0,0,1,4.87-19.34,36.09,36.09,0,0,1,13.28-13.45,38.7,38.7,0,0,1,37.84,0,36.3,36.3,0,0,1,13.22,13.45,39.37,39.37,0,0,1,5,19.34l-4.14,3.25a34.48,34.48,0,0,1-4.47,17.51A33.2,33.2,0,0,1,438.1,155Zm1.06-9.46a26,26,0,0,0,23.43-13.73,31.22,31.22,0,0,0,0-28.88A27,27,0,0,0,453,92.88a27.38,27.38,0,0,0-27.56,0A27.31,27.31,0,0,0,415.67,103a30.76,30.76,0,0,0,0,28.88,26.58,26.58,0,0,0,9.75,10.07A26.3,26.3,0,0,0,439.16,145.56Zm31.91,8.79a5.18,5.18,0,0,1-3.74-1.42,5,5,0,0,1-1.47-3.72V126.08l2.54-10.69,7.87,2v31.79a5,5,0,0,1-1.47,3.72A5.17,5.17,0,0,1,471.07,154.35Z"/><path class="cls-2" d="M501.36,154.35a5,5,0,0,1-3.73-1.36,5.15,5.15,0,0,1-1.34-3.78V85.51a5.15,5.15,0,0,1,1.34-3.79,5.84,5.84,0,0,1,7.47,0,5.15,5.15,0,0,1,1.34,3.79v63.7A5.15,5.15,0,0,1,505.1,153,5,5,0,0,1,501.36,154.35Zm-.8-45.58a32,32,0,0,1,4.34-15,29.33,29.33,0,0,1,10.28-10.42,27,27,0,0,1,14.08-3.78q6.13,0,9.48,1.75c2.22,1.18,3.07,2.89,2.53,5.14a4,4,0,0,1-1.8,2.71,5.56,5.56,0,0,1-3.07.54c-1.2-.09-2.56-.18-4.07-.27A29.44,29.44,0,0,0,519.05,91a20.2,20.2,0,0,0-9.21,6.83,17.91,17.91,0,0,0-3.4,11Z"/><path class="cls-2" d="M562.63,154.35a5.11,5.11,0,0,1-3.8-1.42,5.06,5.06,0,0,1-1.41-3.72V85.64a5.21,5.21,0,0,1,1.41-3.85,5.08,5.08,0,0,1,3.8-1.42,4.91,4.91,0,0,1,3.67,1.42,5.21,5.21,0,0,1,1.4,3.85v63.57a5.05,5.05,0,0,1-1.4,3.72A5,5,0,0,1,562.63,154.35Zm57.4,0a5.06,5.06,0,0,1-5.21-5.14V114q0-8.39-3.14-13.79a20.18,20.18,0,0,0-8.54-8.12,28.71,28.71,0,0,0-24-.13,21.17,21.17,0,0,0-8.34,7,17.46,17.46,0,0,0-3.07,10.14h-7.34A29.42,29.42,0,0,1,564.9,94a30.66,30.66,0,0,1,11.34-10.55A32.39,32.39,0,0,1,592,79.56a35.48,35.48,0,0,1,17,4,29.14,29.14,0,0,1,11.81,11.69Q625.1,103,625.1,114v35.17a5,5,0,0,1-1.47,3.65A4.88,4.88,0,0,1,620,154.35Z"/><path class="cls-2" d="M680.89,155a37.69,37.69,0,0,1-19.15-4.8,34.18,34.18,0,0,1-13.08-13.32,39.38,39.38,0,0,1-4.74-19.48,41.2,41.2,0,0,1,4.47-19.54,33.37,33.37,0,0,1,30.5-18.19,32.9,32.9,0,0,1,17.68,4.67,31.35,31.35,0,0,1,11.68,12.91,41.36,41.36,0,0,1,4.14,18.8,4.56,4.56,0,0,1-1.33,3.45,4.79,4.79,0,0,1-3.47,1.29H650.86v-8.66h57.79l-5.73,4.19a31.33,31.33,0,0,0-2.81-14.06A22.29,22.29,0,0,0,678.89,89a23.78,23.78,0,0,0-22.23,13.73,33,33,0,0,0-3.13,14.67A29.53,29.53,0,0,0,657.07,132a26.28,26.28,0,0,0,9.67,10,27.18,27.18,0,0,0,14.15,3.65,29.34,29.34,0,0,0,9.68-1.69,23.5,23.5,0,0,0,7.81-4.26,5.38,5.38,0,0,1,3.33-1.28,4.64,4.64,0,0,1,3.21,1,5.07,5.07,0,0,1,1.8,3.51,3.93,3.93,0,0,1-1.54,3.25A36,36,0,0,1,694,152.52,37.83,37.83,0,0,1,680.89,155Z"/><path class="cls-2" d="M723.87,154.35a4.44,4.44,0,0,1-3.4-1.36,4.84,4.84,0,0,1-1.34-3.24,5.34,5.34,0,0,1,1.4-3.65L745.09,115l5.74,7.71-23.36,30A4.17,4.17,0,0,1,723.87,154.35Zm52.86,0a5.43,5.43,0,0,1-2.6-.54,7.09,7.09,0,0,1-2.07-1.9L749,122.16l-4-3.52L721.74,88.75a5.19,5.19,0,0,1-.14-7,4.28,4.28,0,0,1,3.47-1.42A5.25,5.25,0,0,1,728.94,82l22.43,29.08,3.6,3,24.83,32.19a5.43,5.43,0,0,1,1.47,4.06,4.38,4.38,0,0,1-1.67,3A4.63,4.63,0,0,1,776.73,154.35Zm-21.62-35.17-6.55-6.76,23.1-29.62a5.13,5.13,0,0,1,4.4-2.43,4.28,4.28,0,0,1,3.47,1.42,4.81,4.81,0,0,1,1.14,3.38,6.47,6.47,0,0,1-1.41,3.72Z"/><path class="cls-3" d="M136.9,150.55l-22.15-36.42c-3.14-5.17-3.14-13.62,0-18.79L136.9,58.92"/><path class="cls-3" d="M119,150.55l-17.48-28.73c-5.71-9.4-5.71-24.77,0-34.17L119,58.92"/><path class="cls-3" d="M45.28,58.92,67.43,95.34c3.14,5.17,3.14,13.62,0,18.79L45.28,150.55"/><path class="cls-3" d="M63.22,58.92,80.7,87.65c5.71,9.4,5.71,24.77,0,34.17L63.22,150.55"/></svg>