<?xml version="1.0" encoding="UTF-8"?>
<!DOCTYPE svg PUBLIC "-//W3C//DTD SVG 1.1//EN" "http://www.w3.org/Graphics/SVG/1.1/DTD/svg11.dtd">
<svg xmlns="http://www.w3.org/2000/svg" version="1.1" width="234px" height="234px" style="shape-rendering:geometricPrecision; text-rendering:geometricPrecision; image-rendering:optimizeQuality; fill-rule:evenodd; clip-rule:evenodd" xmlns:xlink="http://www.w3.org/1999/xlink">
<g><path style="opacity:0.994" fill="#095f74" d="M 106.5,0.5 C 154.024,1.18215 183.857,24.5155 196,70.5C 200.256,95.9702 196.589,120.304 185,143.5C 168.841,175.975 147.674,204.809 121.5,230C 116.167,233.333 110.833,233.333 105.5,230C 79.3261,204.809 58.1594,175.975 42,143.5C 31.3017,121.975 27.3017,99.3082 30,75.5C 38.6484,33.0157 64.1484,8.01569 106.5,0.5 Z"/></g>
<g><path style="opacity:1" fill="#f9fbfb" d="M 61.5,43.5 C 64.3646,43.0548 66.8646,43.7215 69,45.5C 76.6667,58.1667 84.3333,70.8333 92,83.5C 94.4249,91.9141 93.4249,99.9141 89,107.5C 82.0821,118.334 75.4154,129.334 69,140.5C 66.5823,142.68 63.9156,143.013 61,141.5C 59.6986,139.635 59.3653,137.635 60,135.5C 67,124.167 74,112.833 81,101.5C 84.5008,94.9939 84.1674,88.6606 80,82.5C 73.0821,71.6663 66.4154,60.6663 60,49.5C 59.2516,47.1599 59.7516,45.1599 61.5,43.5 Z"/></g>
<g><path style="opacity:1" fill="#f9fbfb" d="M 81.5,43.5 C 83.7925,43.2436 85.9592,43.5769 88,44.5C 95.7732,56.3781 102.773,68.7114 109,81.5C 111.82,92.6825 110.487,103.349 105,113.5C 99.5,122.5 94,131.5 88.5,140.5C 82.3124,144.247 79.479,142.58 80,135.5C 86,125.5 92,115.5 98,105.5C 100.75,97.926 101.083,90.2593 99,82.5C 92.6667,71.8333 86.3333,61.1667 80,50.5C 79.1668,47.829 79.6668,45.4957 81.5,43.5 Z"/></g>
<g><path style="opacity:1" fill="#f9fbfb" d="M 139.5,43.5 C 145.496,42.3327 147.996,44.6661 147,50.5C 140.667,61.1667 134.333,71.8333 128,82.5C 125.917,90.2593 126.25,97.926 129,105.5C 135,115.5 141,125.5 147,135.5C 147.835,141.99 145.168,143.99 139,141.5C 133.333,132.167 127.667,122.833 122,113.5C 116.03,102.251 115.03,90.5843 119,78.5C 125.845,66.8058 132.678,55.1391 139.5,43.5 Z"/></g>
<g><path style="opacity:1" fill="#f9fbfb" d="M 159.5,43.5 C 164.993,42.178 167.493,44.178 167,49.5C 160.585,60.6663 153.918,71.6663 147,82.5C 142.833,88.6606 142.499,94.9939 146,101.5C 153,112.833 160,124.167 167,135.5C 167.981,139.554 166.481,141.888 162.5,142.5C 160.626,142.61 159.126,141.944 158,140.5C 149.748,126.998 141.748,113.331 134,99.5C 132.939,93.2757 133.606,87.2757 136,81.5C 144.058,68.9484 151.892,56.2817 159.5,43.5 Z"/></g>
</svg>
