<svg xmlns="http://www.w3.org/2000/svg" viewBox="0 0 264.09 264"><defs><style>.cls-1{fill:#075f74;}.cls-2{fill:none;stroke:#fff;stroke-linecap:round;stroke-linejoin:round;stroke-width:10px;}</style></defs><title>favicon</title><g id="Layer_3" data-name="Layer 3"><path class="cls-1" d="M47.9,111.76c0-44.75,33.7-89.09,84.15-89.09S216.19,67,216.19,111.76c0,55.15-52.23,114.81-74.07,136.83-7,7.09-12.85,7.34-20.1,0C100.5,226.83,47.9,167,47.9,111.76Z"/></g><g id="Layer_5" data-name="Layer 5"><path class="cls-2" d="M181,159.44l-21.65-35.59c-3.15-5.17-3.15-13.63,0-18.8L181,69.46"/><path class="cls-2" d="M161.41,159.44l-17-27.9c-5.72-9.4-5.72-24.78,0-34.18l17-27.9"/><path class="cls-2" d="M83.05,69.46l21.65,35.59c3.15,5.17,3.15,13.63,0,18.8L83.05,159.44"/><path class="cls-2" d="M102.68,69.46l17,27.9c5.72,9.4,5.72,24.78,0,34.18l-17,27.9"/></g></svg>